<svg width="40" height="40" viewBox="0 0 40 40" fill="none" xmlns="http://www.w3.org/2000/svg">
<path d="M20 0.75C14.9138 0.811714 10.0532 2.85965 6.45643 6.45643C2.85965 10.0532 0.811714 14.9138 0.75 20C0.811714 25.0862 2.85965 29.9468 6.45643 33.5436C10.0532 37.1404 14.9138 39.1883 20 39.25C25.0862 39.1883 29.9468 37.1404 33.5436 33.5436C37.1404 29.9468 39.1883 25.0862 39.25 20C39.1883 14.9138 37.1404 10.0532 33.5436 6.45643C29.9468 2.85965 25.0862 0.811714 20 0.75ZM31 21.375H21.375V31H18.625V21.375H9V18.625H18.625V9H21.375V18.625H31V21.375Z" fill="#4ECB71"/>
</svg>
