<svg width="40" height="40" viewBox="0 0 40 40" fill="none" xmlns="http://www.w3.org/2000/svg">
<path d="M20 0.75C25.1054 0.75 30.0017 2.77812 33.6118 6.38819C37.2219 9.99827 39.25 14.8946 39.25 20C39.25 25.1054 37.2219 30.0017 33.6118 33.6118C30.0017 37.2219 25.1054 39.25 20 39.25C14.8946 39.25 9.99827 37.2219 6.38819 33.6118C2.77812 30.0017 0.75 25.1054 0.75 20C0.75 14.8946 2.77812 9.99827 6.38819 6.38819C9.99827 2.77812 14.8946 0.75 20 0.75ZM10.375 20C10.375 20.4376 10.5488 20.8573 10.8583 21.1667C11.1677 21.4762 11.5874 21.65 12.025 21.65H27.975C28.4126 21.65 28.8323 21.4762 29.1417 21.1667C29.4512 20.8573 29.625 20.4376 29.625 20C29.625 19.5624 29.4512 19.1427 29.1417 18.8333C28.8323 18.5238 28.4126 18.35 27.975 18.35H12.025C11.8083 18.35 11.5938 18.3927 11.3936 18.4756C11.1934 18.5585 11.0115 18.6801 10.8583 18.8333C10.7051 18.9865 10.5835 19.1684 10.5006 19.3686C10.4177 19.5688 10.375 19.7833 10.375 20Z" fill="#F24E1E"/>
</svg>
