<svg width="19" height="18" viewBox="0 0 19 18" fill="none" xmlns="http://www.w3.org/2000/svg">
<path d="M17.2968 17.9937L10.7738 11.4708C10.253 11.9146 9.65405 12.258 8.97697 12.501C8.29989 12.7441 7.61933 12.8656 6.9353 12.8656C5.26725 12.8656 3.85544 12.2882 2.69989 11.1333C1.54433 9.97776 0.966553 8.5663 0.966553 6.89894C0.966553 5.23158 1.54364 3.81943 2.6978 2.66248C3.85266 1.50484 5.26378 0.926025 6.93114 0.926025C8.59919 0.926025 10.0117 1.5038 11.1686 2.65936C12.3256 3.81491 12.9041 5.22707 12.9041 6.89582C12.9041 7.61943 12.7759 8.31978 12.5197 8.99686C12.2627 9.67394 11.9259 10.2531 11.5093 10.7344L18.0322 17.2562L17.2968 17.9937ZM6.9353 11.8229C8.31725 11.8229 9.48426 11.3472 10.4363 10.3958C11.3877 9.44443 11.8634 8.27741 11.8634 6.89478C11.8634 5.51283 11.3877 4.34616 10.4363 3.39478C9.48495 2.44339 8.31829 1.96769 6.93634 1.96769C5.5544 1.96769 4.38739 2.44339 3.4353 3.39478C2.48391 4.34616 2.00822 5.51283 2.00822 6.89478C2.00822 8.27672 2.48391 9.44339 3.4353 10.3948C4.38669 11.3462 5.55336 11.8229 6.9353 11.8229Z" fill="#7E7E7E"/>
</svg>
