<svg width="27" height="27" viewBox="0 0 27 27" fill="none" xmlns="http://www.w3.org/2000/svg">
<path d="M20.9582 21.25C21.6433 21.25 22.3004 21.5222 22.7849 22.0066C23.2693 22.4911 23.5415 23.1482 23.5415 23.8333C23.5415 24.5185 23.2693 25.1755 22.7849 25.66C22.3004 26.1445 21.6433 26.4166 20.9582 26.4166C20.273 26.4166 19.6159 26.1445 19.1315 25.66C18.647 25.1755 18.3748 24.5185 18.3748 23.8333C18.3748 22.3996 19.5244 21.25 20.9582 21.25ZM0.291504 0.583313H4.51525L5.72942 3.16665H24.8332C25.1757 3.16665 25.5043 3.30273 25.7465 3.54497C25.9888 3.7872 26.1248 4.11574 26.1248 4.45831C26.1248 4.6779 26.0603 4.89748 25.9698 5.10415L21.3457 13.4612C20.9065 14.2491 20.054 14.7916 19.0853 14.7916H9.46234L8.29984 16.8971L8.26109 17.0521C8.26109 17.1377 8.29511 17.2198 8.35567 17.2804C8.41623 17.341 8.49836 17.375 8.584 17.375H23.5415V19.9583H8.0415C7.35636 19.9583 6.69928 19.6861 6.21481 19.2017C5.73034 18.7172 5.45817 18.0601 5.45817 17.375C5.45817 16.9229 5.57442 16.4966 5.76817 16.135L7.52484 12.9704L2.87484 3.16665H0.291504V0.583313ZM8.0415 21.25C8.72665 21.25 9.38373 21.5222 9.8682 22.0066C10.3527 22.4911 10.6248 23.1482 10.6248 23.8333C10.6248 24.5185 10.3527 25.1755 9.8682 25.66C9.38373 26.1445 8.72665 26.4166 8.0415 26.4166C7.35636 26.4166 6.69928 26.1445 6.21481 25.66C5.73034 25.1755 5.45817 24.5185 5.45817 23.8333C5.45817 22.3996 6.60775 21.25 8.0415 21.25ZM19.6665 12.2083L23.2573 5.74998H6.93067L9.979 12.2083H19.6665Z" fill="black"/>
</svg>
